<svg id="Capa_1" enable-background="new 0 0 551.147 551.147" height="512" viewBox="0 0 551.147 551.147" width="512" xmlns="http://www.w3.org/2000/svg"><path d="m275.574 551.147c-2.573 0-5.163-.572-7.535-1.749-108.955-53.048-199.139-110.3-199.139-273.816v-189.451c0-7.232 4.524-13.724 11.336-16.18l189.451-68.891c3.801-1.413 7.972-1.413 11.773 0l189.451 68.891c6.812 2.456 11.336 8.948 11.336 16.18v189.451c0 163.516-90.184 220.768-199.139 273.816-2.371 1.177-4.961 1.749-7.534 1.749zm-172.229-452.939v177.375c0 128.465 57.992 182.454 172.228 239.135 114.236-56.681 172.228-110.67 172.228-239.135v-177.375l-172.227-62.635s-172.229 62.635-172.229 62.635z"/></svg>